<svg width="22" height="22" viewBox="0 0 22 22" fill="none" xmlns="http://www.w3.org/2000/svg">
<path fill-rule="evenodd" clip-rule="evenodd" d="M11 2.97916C8.73243 2.97916 6.57527 3.12547 4.62686 3.38952C2.55268 3.6706 1.14581 5.49298 1.14581 7.51545V14.4845C1.14581 16.507 2.55268 18.3294 4.62686 18.6104C6.57527 18.8745 8.73243 19.0208 11 19.0208C13.2675 19.0208 15.4247 18.8745 17.3731 18.6104C19.4472 18.3294 20.8541 16.507 20.8541 14.4845V7.51546C20.8541 5.49298 19.4472 3.6706 17.3731 3.38952C15.4247 3.12547 13.2675 2.97916 11 2.97916ZM9.52039 7.66046C9.308 7.53303 9.04346 7.52969 8.82792 7.65173C8.61238 7.77376 8.47915 8.00231 8.47915 8.24999V13.75C8.47915 13.9977 8.61238 14.2262 8.82792 14.3482C9.04346 14.4703 9.308 14.4669 9.52039 14.3395L14.1037 11.5895C14.3108 11.4653 14.4375 11.2414 14.4375 11C14.4375 10.7585 14.3108 10.5347 14.1037 10.4105L9.52039 7.66046Z" fill="white"/>
</svg>
